<mxfile host="app.diagrams.net" agent="Mozilla/5.0 (Windows NT 10.0; Win64; x64; rv:135.0) Gecko/20100101 Firefox/135.0" version="26.0.11">
  <diagram name="Page-1" id="59lDfqBqN45nsPaaerHX">
    <mxGraphModel dx="1750" dy="2030" grid="1" gridSize="10" guides="1" tooltips="1" connect="1" arrows="1" fold="1" page="1" pageScale="1" pageWidth="850" pageHeight="1100" math="0" shadow="0">
      <root>
        <mxCell id="0" />
        <mxCell id="1" parent="0" />
        <mxCell id="CvrDBl_kxHb6i_lV2LF3-46" value="" style="endArrow=diamondThin;endFill=1;endSize=24;html=1;rounded=0;entryX=1;entryY=0.5;entryDx=0;entryDy=0;exitX=0;exitY=0;exitDx=0;exitDy=0;" parent="1" source="U6h7JssvRAPEU9nQ1imk-5" target="U6h7JssvRAPEU9nQ1imk-1" edge="1">
          <mxGeometry width="160" relative="1" as="geometry">
            <mxPoint x="540" y="-714.8" as="sourcePoint" />
            <mxPoint x="445" y="-714.6666666666666" as="targetPoint" />
          </mxGeometry>
        </mxCell>
        <mxCell id="CvrDBl_kxHb6i_lV2LF3-47" value="*" style="edgeLabel;html=1;align=center;verticalAlign=middle;resizable=0;points=[];" parent="CvrDBl_kxHb6i_lV2LF3-46" vertex="1" connectable="0">
          <mxGeometry x="-0.6698" y="4" relative="1" as="geometry">
            <mxPoint as="offset" />
          </mxGeometry>
        </mxCell>
        <mxCell id="CvrDBl_kxHb6i_lV2LF3-51" value="" style="endArrow=none;html=1;rounded=0;exitX=0.25;exitY=0;exitDx=0;exitDy=0;entryX=0.25;entryY=1;entryDx=0;entryDy=0;" parent="1" source="U6h7JssvRAPEU9nQ1imk-6" target="U6h7JssvRAPEU9nQ1imk-9" edge="1">
          <mxGeometry relative="1" as="geometry">
            <mxPoint x="320" y="-311.9480519480519" as="sourcePoint" />
            <mxPoint x="480" y="-295.818181818182" as="targetPoint" />
          </mxGeometry>
        </mxCell>
        <mxCell id="CvrDBl_kxHb6i_lV2LF3-52" value="1" style="edgeLabel;html=1;align=center;verticalAlign=middle;resizable=0;points=[];" parent="CvrDBl_kxHb6i_lV2LF3-51" vertex="1" connectable="0">
          <mxGeometry x="-0.8243" y="5" relative="1" as="geometry">
            <mxPoint as="offset" />
          </mxGeometry>
        </mxCell>
        <mxCell id="CvrDBl_kxHb6i_lV2LF3-53" value="1" style="edgeLabel;html=1;align=center;verticalAlign=middle;resizable=0;points=[];" parent="CvrDBl_kxHb6i_lV2LF3-51" vertex="1" connectable="0">
          <mxGeometry x="0.7051" y="-2" relative="1" as="geometry">
            <mxPoint as="offset" />
          </mxGeometry>
        </mxCell>
        <mxCell id="CvrDBl_kxHb6i_lV2LF3-55" value="" style="endArrow=diamondThin;endFill=1;endSize=24;html=1;rounded=0;entryX=1;entryY=0.5;entryDx=0;entryDy=0;exitX=0;exitY=0.25;exitDx=0;exitDy=0;" parent="1" source="U6h7JssvRAPEU9nQ1imk-14" target="U6h7JssvRAPEU9nQ1imk-7" edge="1">
          <mxGeometry width="160" relative="1" as="geometry">
            <mxPoint x="238.08510638297867" y="-90" as="sourcePoint" />
            <mxPoint x="212.2033898305085" y="-250" as="targetPoint" />
          </mxGeometry>
        </mxCell>
        <mxCell id="CvrDBl_kxHb6i_lV2LF3-56" value="*" style="edgeLabel;html=1;align=center;verticalAlign=middle;resizable=0;points=[];" parent="CvrDBl_kxHb6i_lV2LF3-55" vertex="1" connectable="0">
          <mxGeometry x="-0.6767" y="2" relative="1" as="geometry">
            <mxPoint as="offset" />
          </mxGeometry>
        </mxCell>
        <mxCell id="CvrDBl_kxHb6i_lV2LF3-68" value="" style="endArrow=diamondThin;endFill=1;endSize=24;html=1;rounded=0;exitX=0;exitY=0;exitDx=0;exitDy=0;entryX=0.5;entryY=1;entryDx=0;entryDy=0;" parent="1" source="U6h7JssvRAPEU9nQ1imk-2" target="U6h7JssvRAPEU9nQ1imk-9" edge="1">
          <mxGeometry width="160" relative="1" as="geometry">
            <mxPoint x="331.808510638298" y="-600" as="sourcePoint" />
            <mxPoint x="521.0344827586207" y="-320" as="targetPoint" />
          </mxGeometry>
        </mxCell>
        <mxCell id="CvrDBl_kxHb6i_lV2LF3-69" value="*" style="edgeLabel;html=1;align=center;verticalAlign=middle;resizable=0;points=[];" parent="CvrDBl_kxHb6i_lV2LF3-68" vertex="1" connectable="0">
          <mxGeometry x="-0.6767" y="2" relative="1" as="geometry">
            <mxPoint as="offset" />
          </mxGeometry>
        </mxCell>
        <mxCell id="CvrDBl_kxHb6i_lV2LF3-77" value="" style="endArrow=none;html=1;rounded=0;exitX=0.5;exitY=1;exitDx=0;exitDy=0;entryX=0.5;entryY=0;entryDx=0;entryDy=0;" parent="1" source="U6h7JssvRAPEU9nQ1imk-1" target="U6h7JssvRAPEU9nQ1imk-6" edge="1">
          <mxGeometry relative="1" as="geometry">
            <mxPoint x="293.2608695652175" y="-600" as="sourcePoint" />
            <mxPoint x="236" y="-430" as="targetPoint" />
          </mxGeometry>
        </mxCell>
        <mxCell id="CvrDBl_kxHb6i_lV2LF3-78" value="1" style="edgeLabel;html=1;align=center;verticalAlign=middle;resizable=0;points=[];" parent="CvrDBl_kxHb6i_lV2LF3-77" vertex="1" connectable="0">
          <mxGeometry x="-0.8243" y="5" relative="1" as="geometry">
            <mxPoint as="offset" />
          </mxGeometry>
        </mxCell>
        <mxCell id="CvrDBl_kxHb6i_lV2LF3-79" value="1" style="edgeLabel;html=1;align=center;verticalAlign=middle;resizable=0;points=[];" parent="CvrDBl_kxHb6i_lV2LF3-77" vertex="1" connectable="0">
          <mxGeometry x="0.7051" y="-2" relative="1" as="geometry">
            <mxPoint as="offset" />
          </mxGeometry>
        </mxCell>
        <mxCell id="CvrDBl_kxHb6i_lV2LF3-80" value="" style="endArrow=none;html=1;rounded=0;exitX=0.25;exitY=1;exitDx=0;exitDy=0;entryX=0.75;entryY=0;entryDx=0;entryDy=0;" parent="1" source="U6h7JssvRAPEU9nQ1imk-5" target="U6h7JssvRAPEU9nQ1imk-6" edge="1">
          <mxGeometry relative="1" as="geometry">
            <mxPoint x="592.5555555555557" y="-645" as="sourcePoint" />
            <mxPoint x="305" y="-430" as="targetPoint" />
          </mxGeometry>
        </mxCell>
        <mxCell id="CvrDBl_kxHb6i_lV2LF3-81" value="*" style="edgeLabel;html=1;align=center;verticalAlign=middle;resizable=0;points=[];" parent="CvrDBl_kxHb6i_lV2LF3-80" vertex="1" connectable="0">
          <mxGeometry x="-0.874" y="4" relative="1" as="geometry">
            <mxPoint x="4" y="1" as="offset" />
          </mxGeometry>
        </mxCell>
        <mxCell id="CvrDBl_kxHb6i_lV2LF3-82" value="1" style="edgeLabel;html=1;align=center;verticalAlign=middle;resizable=0;points=[];" parent="CvrDBl_kxHb6i_lV2LF3-80" vertex="1" connectable="0">
          <mxGeometry x="0.8558" y="5" relative="1" as="geometry">
            <mxPoint as="offset" />
          </mxGeometry>
        </mxCell>
        <mxCell id="CvrDBl_kxHb6i_lV2LF3-84" value="" style="endArrow=diamondThin;endFill=1;endSize=24;html=1;rounded=0;entryX=0;entryY=0.25;entryDx=0;entryDy=0;exitX=1;exitY=0.25;exitDx=0;exitDy=0;" parent="1" source="U6h7JssvRAPEU9nQ1imk-9" target="U6h7JssvRAPEU9nQ1imk-4" edge="1">
          <mxGeometry width="160" relative="1" as="geometry">
            <mxPoint x="590.9036144578315" y="-320" as="sourcePoint" />
            <mxPoint x="615.054347826087" y="-645" as="targetPoint" />
          </mxGeometry>
        </mxCell>
        <mxCell id="CvrDBl_kxHb6i_lV2LF3-85" value="*" style="edgeLabel;html=1;align=center;verticalAlign=middle;resizable=0;points=[];" parent="CvrDBl_kxHb6i_lV2LF3-84" vertex="1" connectable="0">
          <mxGeometry x="-0.6698" y="4" relative="1" as="geometry">
            <mxPoint as="offset" />
          </mxGeometry>
        </mxCell>
        <mxCell id="CvrDBl_kxHb6i_lV2LF3-87" value="" style="endArrow=diamondThin;endFill=1;endSize=24;html=1;rounded=0;entryX=0;entryY=0.5;entryDx=0;entryDy=0;exitX=1;exitY=0.5;exitDx=0;exitDy=0;" parent="1" source="U6h7JssvRAPEU9nQ1imk-13" target="U6h7JssvRAPEU9nQ1imk-10" edge="1">
          <mxGeometry width="160" relative="1" as="geometry">
            <mxPoint x="320" y="-46.73913043478274" as="sourcePoint" />
            <mxPoint x="700" y="-62.03703703703718" as="targetPoint" />
          </mxGeometry>
        </mxCell>
        <mxCell id="CvrDBl_kxHb6i_lV2LF3-88" value="1" style="edgeLabel;html=1;align=center;verticalAlign=middle;resizable=0;points=[];" parent="CvrDBl_kxHb6i_lV2LF3-87" vertex="1" connectable="0">
          <mxGeometry x="-0.6698" y="4" relative="1" as="geometry">
            <mxPoint as="offset" />
          </mxGeometry>
        </mxCell>
        <mxCell id="CvrDBl_kxHb6i_lV2LF3-89" value="" style="endArrow=diamondThin;endFill=1;endSize=24;html=1;rounded=0;entryX=0.75;entryY=1;entryDx=0;entryDy=0;exitX=0.5;exitY=0;exitDx=0;exitDy=0;" parent="1" source="U6h7JssvRAPEU9nQ1imk-10" target="U6h7JssvRAPEU9nQ1imk-5" edge="1">
          <mxGeometry width="160" relative="1" as="geometry">
            <mxPoint x="771.0000000000002" y="-110" as="sourcePoint" />
            <mxPoint x="636.1240310077519" y="-645" as="targetPoint" />
          </mxGeometry>
        </mxCell>
        <mxCell id="CvrDBl_kxHb6i_lV2LF3-90" value="1" style="edgeLabel;html=1;align=center;verticalAlign=middle;resizable=0;points=[];" parent="CvrDBl_kxHb6i_lV2LF3-89" vertex="1" connectable="0">
          <mxGeometry x="-0.6698" y="4" relative="1" as="geometry">
            <mxPoint as="offset" />
          </mxGeometry>
        </mxCell>
        <mxCell id="U6h7JssvRAPEU9nQ1imk-1" value="&lt;b&gt;Smartphone&lt;/b&gt;" style="swimlane;childLayout=stackLayout;horizontal=1;startSize=50;horizontalStack=0;rounded=1;fontSize=14;fontStyle=0;strokeWidth=2;resizeParent=0;resizeLast=1;shadow=0;dashed=0;align=center;arcSize=4;whiteSpace=wrap;html=1;" vertex="1" parent="1">
          <mxGeometry x="190" y="-770" width="160" height="270" as="geometry" />
        </mxCell>
        <mxCell id="U6h7JssvRAPEU9nQ1imk-2" value="+SmartphoneID&lt;br&gt;+Marketer&lt;br&gt;+Modell&lt;br&gt;+Einzelpreis&lt;br&gt;+Arbeitsspeicher&lt;br&gt;+Bichtschirmgroesse&lt;br&gt;+Speicherkapazitaet&lt;br&gt;+Betrohmssystem&lt;br&gt;+Betrohmssystem Version&lt;br&gt;+Pixelaufloesung)&lt;br&gt;+A nzahlprozessorkerne&lt;br&gt;+Akkukapazitaet&lt;br&gt;+Konnektivitaet&lt;br&gt;+MobilfunkStandard" style="align=left;strokeColor=none;fillColor=none;spacingLeft=4;fontSize=12;verticalAlign=top;resizable=0;rotatable=0;part=1;html=1;" vertex="1" parent="U6h7JssvRAPEU9nQ1imk-1">
          <mxGeometry y="50" width="160" height="220" as="geometry" />
        </mxCell>
        <mxCell id="U6h7JssvRAPEU9nQ1imk-4" value="&lt;b&gt;Bestellung&lt;/b&gt;" style="swimlane;childLayout=stackLayout;horizontal=1;startSize=50;horizontalStack=0;rounded=1;fontSize=14;fontStyle=0;strokeWidth=2;resizeParent=0;resizeLast=1;shadow=0;dashed=0;align=center;arcSize=4;whiteSpace=wrap;html=1;" vertex="1" parent="1">
          <mxGeometry x="530" y="-790" width="160" height="125" as="geometry" />
        </mxCell>
        <mxCell id="U6h7JssvRAPEU9nQ1imk-5" value="+BestellungID&lt;br&gt;+Bestelldatum&lt;br&gt;+KundeID&lt;br&gt;+Total" style="align=left;strokeColor=none;fillColor=none;spacingLeft=4;fontSize=12;verticalAlign=top;resizable=0;rotatable=0;part=1;html=1;" vertex="1" parent="U6h7JssvRAPEU9nQ1imk-4">
          <mxGeometry y="50" width="160" height="75" as="geometry" />
        </mxCell>
        <mxCell id="U6h7JssvRAPEU9nQ1imk-6" value="&lt;p style=&quot;margin: 4px 0px 0px; text-align: center; text-decoration: underline;&quot;&gt;&lt;b&gt;Kunde&lt;/b&gt;&lt;/p&gt;" style="swimlane;childLayout=stackLayout;horizontal=1;startSize=50;horizontalStack=0;rounded=1;fontSize=14;fontStyle=0;strokeWidth=2;resizeParent=0;resizeLast=1;shadow=0;dashed=0;align=center;arcSize=4;whiteSpace=wrap;html=1;" vertex="1" parent="1">
          <mxGeometry x="160" y="-440" width="160" height="170" as="geometry" />
        </mxCell>
        <mxCell id="U6h7JssvRAPEU9nQ1imk-7" value="&lt;div align=&quot;left&quot;&gt;+KundeID&lt;br&gt;+Email&lt;br&gt;+Name&lt;br&gt;+TelefonPrivat&lt;br&gt;+TelefonMobile&lt;br&gt;+Password&lt;br&gt;+Username&lt;/div&gt;" style="align=left;strokeColor=none;fillColor=none;spacingLeft=4;fontSize=12;verticalAlign=top;resizable=0;rotatable=0;part=1;html=1;" vertex="1" parent="U6h7JssvRAPEU9nQ1imk-6">
          <mxGeometry y="50" width="160" height="120" as="geometry" />
        </mxCell>
        <mxCell id="U6h7JssvRAPEU9nQ1imk-8" value="&lt;p align=&quot;center&quot; style=&quot;margin: 4px 0px 0px; text-decoration-color: currentcolor;&quot;&gt;&lt;b&gt;Bestellposition&lt;/b&gt;&lt;/p&gt;" style="swimlane;childLayout=stackLayout;horizontal=1;startSize=50;horizontalStack=0;rounded=1;fontSize=14;fontStyle=0;strokeWidth=2;resizeParent=0;resizeLast=1;shadow=0;dashed=0;align=center;arcSize=4;whiteSpace=wrap;html=1;" vertex="1" parent="1">
          <mxGeometry x="60" y="-940" width="160" height="140" as="geometry" />
        </mxCell>
        <mxCell id="U6h7JssvRAPEU9nQ1imk-9" value="&lt;div align=&quot;left&quot;&gt;+BestellpositionID&lt;/div&gt;&lt;div align=&quot;left&quot;&gt;+BestellungID&lt;br&gt;+SmartphoneID&lt;br&gt;+Stueckzahl&lt;br&gt;+Einzelpreis&lt;/div&gt;" style="align=left;strokeColor=none;fillColor=none;spacingLeft=4;fontSize=12;verticalAlign=top;resizable=0;rotatable=0;part=1;html=1;" vertex="1" parent="U6h7JssvRAPEU9nQ1imk-8">
          <mxGeometry y="50" width="160" height="90" as="geometry" />
        </mxCell>
        <mxCell id="U6h7JssvRAPEU9nQ1imk-10" value="&lt;b&gt;Zahlung&lt;/b&gt;" style="swimlane;childLayout=stackLayout;horizontal=1;startSize=50;horizontalStack=0;rounded=1;fontSize=14;fontStyle=0;strokeWidth=2;resizeParent=0;resizeLast=1;shadow=0;dashed=0;align=center;arcSize=4;whiteSpace=wrap;html=1;" vertex="1" parent="1">
          <mxGeometry x="630" y="-470" width="160" height="100" as="geometry" />
        </mxCell>
        <mxCell id="U6h7JssvRAPEU9nQ1imk-11" value="&lt;div align=&quot;left&quot;&gt;+Transaktionsnummer&lt;/div&gt;&lt;div align=&quot;left&quot;&gt;+Kreditkartennummer&lt;/div&gt;" style="align=left;strokeColor=none;fillColor=none;spacingLeft=4;fontSize=12;verticalAlign=top;resizable=0;rotatable=0;part=1;html=1;" vertex="1" parent="U6h7JssvRAPEU9nQ1imk-10">
          <mxGeometry y="50" width="160" height="50" as="geometry" />
        </mxCell>
        <mxCell id="U6h7JssvRAPEU9nQ1imk-13" value="&lt;b&gt;Addresse&lt;/b&gt;" style="swimlane;childLayout=stackLayout;horizontal=1;startSize=50;horizontalStack=0;rounded=1;fontSize=14;fontStyle=0;strokeWidth=2;resizeParent=0;resizeLast=1;shadow=0;dashed=0;align=center;arcSize=4;whiteSpace=wrap;html=1;" vertex="1" parent="1">
          <mxGeometry x="410" y="-480" width="160" height="110" as="geometry" />
        </mxCell>
        <mxCell id="U6h7JssvRAPEU9nQ1imk-14" value="&lt;div align=&quot;left&quot;&gt;+Ort&lt;/div&gt;&lt;div align=&quot;left&quot;&gt;+Plz&lt;br&gt;+Strasse&lt;/div&gt;" style="align=left;strokeColor=none;fillColor=none;spacingLeft=4;fontSize=12;verticalAlign=top;resizable=0;rotatable=0;part=1;html=1;" vertex="1" parent="U6h7JssvRAPEU9nQ1imk-13">
          <mxGeometry y="50" width="160" height="60" as="geometry" />
        </mxCell>
        <mxCell id="U6h7JssvRAPEU9nQ1imk-20" value="&lt;b&gt;&lt;font style=&quot;font-size: 36px;&quot;&gt;Aggregiertes Datenmodell&lt;/font&gt;&lt;/b&gt;" style="text;html=1;align=center;verticalAlign=middle;whiteSpace=wrap;rounded=0;" vertex="1" parent="1">
          <mxGeometry x="210" y="-1010" width="520" height="30" as="geometry" />
        </mxCell>
      </root>
    </mxGraphModel>
  </diagram>
</mxfile>
